<?xml version="1.0" encoding="UTF-8"?>

<conversiontasks>
  <conversiontask id="215" status="error" assetid="143" presetid="previewffmpeg" ordering="06" submitted="2012-10-19 10:15:41 -0400" errordetails="FFmpeg version SVN-r23410, Copyright (c) 2000-2010 the FFmpeg developers
  built on Jun  1 2010 12:25:48 with gcc 4.4.3
  configuration: --enable-gpl --enable-version3 --enable-nonfree --enable-postproc --enable-pthreads --enable-libfaac --enable-libfaad --enable-libmp3lame --enable-libopencore-amrnb --enable-libopencore-amrwb --enable-libtheora --enable-libx264 --enable-libxvid --enable-x11grab
  libavutil     50.16. 0 / 50.16. 0
  libavcodec    52.72. 1 / 52.72. 1
  libavformat   52.67. 0 / 52.67. 0
  libavdevice   52. 2. 0 / 52. 2. 0
  libavfilter    1.20. 0 /  1.20. 0
  libswscale     0.10. 0 /  0.10. 0
  libpostproc   51. 2. 0 / 51. 2. 0
[matroska @ 0x9df2510]max_analyze_duration reached
[matroska @ 0x9df2510]Estimating duration from bitrate, this may be inaccurate
Input #0, matroska, from '/home/cburkey/git/demoall/webapp/WEB-INF/data/media/catalogs/public/originals/2012/10/Video_WebM_143.webm':
  Duration: 00:00:09.30, start: 0.000000, bitrate: N/A
    Stream #0.0: Video: 0x0000, 320x240, PAR 1:1 DAR 4:3, 29.97 fps, 29.97 tbr, 1k tbn, 29.97 tbc
    Stream #0.1: Audio: vorbis, 44100 Hz, stereo, s16
swScaler: Unknown format is not supported as input pixel format
Cannot get resampling context
"/>
  <conversiontask id="216" status="missinginput" assetid="143" presetid="previewffmpegthumb" ordering="10" submitted="2012-10-19 10:15:42 -0400"></conversiontask>
</conversiontasks>
